HIERARCHY
ROOT RootJoint
{
    OFFSET   0.000000   0.000000   0.000000
    CHANNELS 6 Xposition Yposition Zposition Xrotation Yrotation Zrotation
    JOINT pelvis_lowerback
    {
        OFFSET   0.000000   0.093605   0.000000
        CHANNELS 3 Xrotation Yrotation Zrotation
        JOINT lowerback_torso
        {
            OFFSET   0.000000   0.100000   0.000000
            CHANNELS 3 Xrotation Yrotation Zrotation
            JOINT torso_head
            {
                OFFSET   0.000000   0.282350   0.000000
                CHANNELS 3 Xrotation Yrotation Zrotation
                End Site
                {
                    OFFSET   0.000000   0.192650   0.000000
                }
            }
            JOINT rTorso_Clavicle
            {
                OFFSET  -0.001000   0.157500   0.000000
                CHANNELS 3 Xrotation Yrotation Zrotation
                JOINT rShoulder
                {
                    OFFSET  -0.117647   0.000000   0.000000
                    CHANNELS 3 Xrotation Yrotation Zrotation
                    JOINT rElbow
                    {
                        OFFSET  -0.245000   0.000000   0.000000
                        CHANNELS 3 Xrotation Yrotation Zrotation
                        JOINT rWrist
                        {
                            OFFSET  -0.240000   0.000000   0.000000
                            CHANNELS 3 Xrotation Yrotation Zrotation
                            End Site
                            {
                                OFFSET  -0.116353  -0.002500   0.000000
                            }
                        }
                    }
                }
            }
            JOINT lTorso_Clavicle
            {
                OFFSET   0.001000   0.157500   0.000000
                CHANNELS 3 Xrotation Yrotation Zrotation
                JOINT lShoulder
                {
                    OFFSET   0.117647   0.000000   0.000000
                    CHANNELS 3 Xrotation Yrotation Zrotation
                    JOINT lElbow
                    {
                        OFFSET   0.245000   0.000000   0.000000
                        CHANNELS 3 Xrotation Yrotation Zrotation
                        JOINT lWrist
                        {
                            OFFSET   0.240000   0.000000   0.000000
                            CHANNELS 3 Xrotation Yrotation Zrotation
                            End Site
                            {
                                OFFSET   0.116353  -0.002500   0.000000
                            }
                        }
                    }
                }
            }
        }
    }
    JOINT rHip
    {
        OFFSET  -0.100000  -0.051395   0.000000
        CHANNELS 3 Xrotation Yrotation Zrotation
        JOINT rKnee
        {
            OFFSET   0.000000  -0.410000   0.000000
            CHANNELS 3 Xrotation Yrotation Zrotation
            JOINT rAnkle
            {
                OFFSET   0.000000  -0.390000   0.000000
                CHANNELS 3 Xrotation Yrotation Zrotation
                JOINT rToeJoint
                {
                    OFFSET   0.000000  -0.050000   0.130000
                    CHANNELS 3 Xrotation Yrotation Zrotation
                    End Site
                    {
                        OFFSET  -0.010000   0.002000   0.060000
                    }
                }
            }
        }
    }
    JOINT lHip
    {
        OFFSET   0.100000  -0.051395   0.000000
        CHANNELS 3 Xrotation Yrotation Zrotation
        JOINT lKnee
        {
            OFFSET   0.000000  -0.410000   0.000000
            CHANNELS 3 Xrotation Yrotation Zrotation
            JOINT lAnkle
            {
                OFFSET   0.000000  -0.390000   0.000000
                CHANNELS 3 Xrotation Yrotation Zrotation
                JOINT lToeJoint
                {
                    OFFSET   0.000000  -0.050000   0.130000
                    CHANNELS 3 Xrotation Yrotation Zrotation
                    End Site
                    {
                        OFFSET   0.010000   0.002000   0.060000
                    }
                }
            }
        }
    }
}
MOTION
Frames: 5
Frame Time:   0.008333
 -2.293347   0.818643   4.054933  26.876087 -77.601079  27.068801  27.730302   0.349856  -0.560308   0.494764  -0.261831   2.117719  -6.423099   0.207336   0.392122   1.237345  -3.707124   5.147181   1.490918  -0.498550  49.011525   0.006933  57.675151  -0.003824  -1.538608   3.851923  -7.445800   3.081460   3.071825  -2.595527   6.845912  -3.404352 -50.839275   0.003736 -64.716173  -0.000473  -1.870397  -5.246451   4.849364 -31.569479   2.421334  -5.054857  59.774701  -0.007833  -0.010751 -31.898359  -4.371567  -1.620039  -2.401629  -0.000391   0.000081 -36.559922  -1.985334   2.861165  67.911234  -0.002386  -0.029017 -23.262446   4.163849   5.238327  -9.032823   0.002324  -0.003146
 -2.292631   0.810434   4.054621  26.827610 -77.784643  26.860861  28.070489   0.391863  -0.503654   0.449671  -0.098186   1.981971  -6.580916   0.220759   0.449806   0.883368  -3.252489   5.213881   0.996255  -0.259442  49.058622   0.008242  59.392854  -0.006626  -1.703193   2.937007  -7.362072   2.860335   2.740968  -2.627957   6.268017  -3.447490 -50.475891  -0.002684 -66.426270  -0.002294  -2.138602  -4.423612   4.605008 -32.510870   2.395279  -4.921762  61.847927  -0.008076  -0.011841 -33.271724  -4.177955  -1.528501  -1.931691  -0.000622  -0.000030 -37.771714  -2.125924   2.630664  69.881100  -0.002070  -0.030328 -22.559783   4.307496   5.328955  -8.990587   0.001891  -0.002638
 -2.292058   0.802644   4.054267  26.792906 -77.930399  26.787969  28.342498   0.395618  -0.561796   0.309349   0.029724   1.829929  -6.715059   0.232246   0.499945   0.455101  -2.740096   5.239127   0.443131   0.045757  49.097943   0.006995  61.086759  -0.007432  -1.806604   2.484084  -7.227797   2.520549   2.329796  -2.527990   5.603755  -3.556130 -50.043915  -0.014994 -68.107247  -0.008763  -2.356038  -4.032354   4.421948 -33.391673   2.402370  -4.910975  63.792044  -0.008227  -0.012414 -34.598914  -4.011690  -1.437730  -1.465675  -0.000800  -0.000207 -38.868281  -2.379552   2.549130  72.186560  -0.007114  -0.028727 -22.326470   4.730505   5.473627 -13.755885   0.016458   0.000975
 -2.291645   0.795253   4.054089  26.737197 -78.021937  26.737327  28.540500   0.379467  -0.608494   0.086382   0.130495   1.674696  -6.843413   0.242861   0.538347  -0.012599  -2.196888   5.220022  -0.136288   0.375170  49.108743   0.004011  62.697897  -0.006469  -1.876603   2.268738  -7.119918   2.119273   1.868236  -2.384048   4.904913  -3.707079 -49.604593  -0.030191 -69.709962  -0.018643  -2.542603  -3.888054   4.330153 -34.209389   2.420588  -4.963858  65.607962  -0.007827  -0.012352 -35.843007  -3.863937  -1.351926  -1.053763  -0.000833  -0.000266 -39.892479  -2.583994   2.461467  74.266303  -0.010028  -0.025377 -22.074620   4.941177   5.547935 -17.972879   0.022394   0.008983
 -2.291470   0.788212   4.054084  26.632400 -78.086289  26.645179  28.669779   0.359042  -0.633213  -0.194776   0.217743   1.534781  -6.969171   0.252997   0.573711  -0.493214  -1.647008   5.174056  -0.718481   0.710606  49.101164  -0.000107  64.218669  -0.003920  -1.927267   2.182286  -7.043863   1.696118   1.388533  -2.224581   4.206325  -3.881331 -49.177548  -0.046657 -71.225321  -0.030814  -2.709609  -3.883310   4.296187 -34.952834   2.447994  -5.034612  67.312364  -0.007058  -0.011849 -36.999726  -3.731389  -1.272458  -0.701530  -0.000770  -0.000237 -40.842109  -2.755069   2.368411  76.188180  -0.011322  -0.021838 -21.825483   5.103101   5.605515 -21.733273   0.024070   0.014835
